<svg xmlns:var="https://github.com/cascornelissen/svg-spritemap-webpack-plugin/" xmlns="http://www.w3.org/2000/svg" viewBox="0 0 18 18">
  <g var:fill.fill="">
    <path d="M7.6,3.91c.46-.11,.93-.16,1.4-.16,4.03,0,6.69,4.04,7.39,5.25-.39,.67-.83,1.31-1.34,1.91-.27,.32-.23,.79,.09,1.06,.14,.12,.31,.18,.48,.18,.21,0,.43-.09,.57-.27,.65-.78,1.23-1.63,1.71-2.52,.12-.21,.12-.47,0-.69-.13-.26-3.27-6.41-8.92-6.41-.58,0-1.18,.07-1.75,.2-.4,.09-.65,.5-.56,.9s.5,.65,.9,.56Z"/>
    <path d="M17.78,16.72L1.28,.22C.99-.07,.51-.07,.22,.22S-.07,.99,.22,1.28l3.22,3.22C2.08,5.67,.94,7.05,.09,8.65c-.12,.21-.12,.47-.01,.69,.13,.26,3.27,6.41,8.93,6.41,1.54-.03,3.05-.51,4.34-1.34l3.37,3.37c.15,.15,.34,.22,.53,.22s.38-.07,.53-.22c.29-.29,.29-.77,0-1.06ZM7.54,8.6l1.85,1.85c-.5,.15-1.06,.06-1.47-.32-.42-.4-.55-.99-.38-1.52Zm1.46,5.65c-4.03,0-6.69-4.04-7.39-5.25,.76-1.31,1.74-2.46,2.9-3.44l1.9,1.9c-.73,1.18-.56,2.75,.48,3.75,.58,.55,1.32,.83,2.07,.83,.55,0,1.09-.16,1.57-.45l1.74,1.74c-.99,.57-2.13,.9-3.27,.92Z"/>
  </g>
</svg>
