<?xml version="1.0" encoding="UTF-8"?>
<svg xmlns:var="https://github.com/cascornelissen/svg-spritemap-webpack-plugin/"  xmlns="http://www.w3.org/2000/svg" version="1.1" viewBox="0 0 20 20">
  <path d="M15.83,18.15c-.36,0-.65-.29-.65-.65v-1.67c0-.72-.28-1.39-.79-1.9s-1.18-.79-1.9-.79h-5c-.72,0-1.39.28-1.9.79-.51.51-.79,1.18-.79,1.9v1.67c0,.36-.29.65-.65.65s-.65-.29-.65-.65v-1.67c0-1.06.41-2.06,1.17-2.82.75-.75,1.75-1.17,2.82-1.17h5c1.06,0,2.06.42,2.82,1.17.75.75,1.17,1.75,1.17,2.82v1.67c0,.36-.29.65-.65.65ZM10,9.82c-2.2,0-3.98-1.79-3.98-3.98s1.79-3.98,3.98-3.98,3.98,1.79,3.98,3.98-1.79,3.98-3.98,3.98ZM10,3.15c-1.48,0-2.68,1.2-2.68,2.68s1.2,2.68,2.68,2.68,2.68-1.2,2.68-2.68-1.2-2.68-2.68-2.68Z" var:fill.fill=""/>
</svg>
