<svg width="1804" height="651" viewBox="0 0 1804 651" fill="none" xmlns="http://www.w3.org/2000/svg">
<path d="M596.949 63H352.383C352.383 123.96 401.731 173.309 462.691 173.309H507.685V216.852C507.685 277.812 557.033 327.16 617.993 327.16V84.0458C617.993 72.4342 608.559 63 596.949 63Z" fill="#2684FF"/>
<path d="M475.757 184.92H231.191C231.191 245.88 280.54 295.228 341.5 295.228H386.493V338.772C386.493 399.732 435.844 449.08 496.803 449.08V205.966C496.803 194.354 487.367 184.92 475.757 184.92Z" fill="url(#paint0_linear_842_419)"/>
<path d="M354.566 306.84H110C110 367.8 159.349 417.148 220.309 417.148H265.302V460.692C265.302 521.652 314.652 571 375.612 571V327.886C375.612 316.274 366.178 306.84 354.566 306.84Z" fill="url(#paint1_linear_842_419)"/>
<path d="M815.573 507.896C809.002 507.896 803.114 506.829 797.909 504.696C792.704 502.563 788.522 499.405 785.365 495.224C782.293 491.043 780.672 486.008 780.501 480.12H803.797C804.138 483.448 805.29 486.008 807.253 487.8C809.216 489.507 811.776 490.36 814.933 490.36C818.176 490.36 820.736 489.635 822.613 488.184C824.49 486.648 825.429 484.557 825.429 481.912C825.429 479.693 824.661 477.859 823.125 476.408C821.674 474.957 819.84 473.763 817.621 472.824C815.488 471.885 812.416 470.819 808.405 469.624C802.602 467.832 797.866 466.04 794.197 464.248C790.528 462.456 787.37 459.811 784.725 456.312C782.08 452.813 780.757 448.248 780.757 442.616C780.757 434.253 783.786 427.725 789.845 423.032C795.904 418.253 803.797 415.864 813.525 415.864C823.424 415.864 831.402 418.253 837.461 423.032C843.52 427.725 846.762 434.296 847.189 442.744H823.509C823.338 439.843 822.272 437.581 820.309 435.96C818.346 434.253 815.829 433.4 812.757 433.4C810.112 433.4 807.978 434.125 806.357 435.576C804.736 436.941 803.925 438.947 803.925 441.592C803.925 444.493 805.29 446.755 808.021 448.376C810.752 449.997 815.018 451.747 820.821 453.624C826.624 455.587 831.317 457.464 834.901 459.256C838.57 461.048 841.728 463.651 844.373 467.064C847.018 470.477 848.341 474.872 848.341 480.248C848.341 485.368 847.018 490.019 844.373 494.2C841.813 498.381 838.058 501.709 833.109 504.184C828.16 506.659 822.314 507.896 815.573 507.896ZM883.699 434.68V452.856H913.011V469.752H883.699V489.464H916.851V507H861.811V417.144H916.851V434.68H883.699ZM976.885 507L958.197 473.08H952.949V507H931.061V417.144H967.797C974.88 417.144 980.896 418.381 985.845 420.856C990.88 423.331 994.634 426.744 997.109 431.096C999.584 435.363 1000.82 440.141 1000.82 445.432C1000.82 451.405 999.114 456.739 995.701 461.432C992.373 466.125 987.424 469.453 980.853 471.416L1001.59 507H976.885ZM952.949 457.592H966.517C970.528 457.592 973.514 456.611 975.477 454.648C977.525 452.685 978.549 449.912 978.549 446.328C978.549 442.915 977.525 440.227 975.477 438.264C973.514 436.301 970.528 435.32 966.517 435.32H952.949V457.592ZM1098.91 417.144L1067.04 507H1039.65L1007.78 417.144H1031.07L1053.35 484.984L1075.75 417.144H1098.91ZM1129.95 417.144V507H1108.06V417.144H1129.95ZM1142.1 461.944C1142.1 453.069 1144.02 445.176 1147.86 438.264C1151.7 431.267 1157.03 425.848 1163.86 422.008C1170.77 418.083 1178.58 416.12 1187.28 416.12C1197.95 416.12 1207.08 418.936 1214.68 424.568C1222.27 430.2 1227.35 437.88 1229.91 447.608H1205.84C1204.05 443.853 1201.49 440.995 1198.16 439.032C1194.92 437.069 1191.21 436.088 1187.03 436.088C1180.29 436.088 1174.82 438.435 1170.64 443.128C1166.46 447.821 1164.37 454.093 1164.37 461.944C1164.37 469.795 1166.46 476.067 1170.64 480.76C1174.82 485.453 1180.29 487.8 1187.03 487.8C1191.21 487.8 1194.92 486.819 1198.16 484.856C1201.49 482.893 1204.05 480.035 1205.84 476.28H1229.91C1227.35 486.008 1222.27 493.688 1214.68 499.32C1207.08 504.867 1197.95 507.64 1187.28 507.64C1178.58 507.64 1170.77 505.72 1163.86 501.88C1157.03 497.955 1151.7 492.536 1147.86 485.624C1144.02 478.712 1142.1 470.819 1142.1 461.944ZM1265.2 434.68V452.856H1294.51V469.752H1265.2V489.464H1298.35V507H1243.31V417.144H1298.35V434.68H1265.2ZM1373.35 417.144C1382.82 417.144 1391.1 419.021 1398.18 422.776C1405.26 426.531 1410.73 431.821 1414.57 438.648C1418.49 445.389 1420.45 453.197 1420.45 462.072C1420.45 470.861 1418.49 478.669 1414.57 485.496C1410.73 492.323 1405.22 497.613 1398.05 501.368C1390.97 505.123 1382.74 507 1373.35 507H1339.69V417.144H1373.35ZM1371.94 488.056C1380.22 488.056 1386.66 485.795 1391.27 481.272C1395.88 476.749 1398.18 470.349 1398.18 462.072C1398.18 453.795 1395.88 447.352 1391.27 442.744C1386.66 438.136 1380.22 435.832 1371.94 435.832H1361.57V488.056H1371.94ZM1454.57 434.68V452.856H1483.89V469.752H1454.57V489.464H1487.73V507H1432.69V417.144H1487.73V434.68H1454.57ZM1534.45 507.896C1527.88 507.896 1521.99 506.829 1516.78 504.696C1511.58 502.563 1507.4 499.405 1504.24 495.224C1501.17 491.043 1499.55 486.008 1499.38 480.12H1522.67C1523.01 483.448 1524.17 486.008 1526.13 487.8C1528.09 489.507 1530.65 490.36 1533.81 490.36C1537.05 490.36 1539.61 489.635 1541.49 488.184C1543.37 486.648 1544.3 484.557 1544.3 481.912C1544.3 479.693 1543.54 477.859 1542 476.408C1540.55 474.957 1538.71 473.763 1536.5 472.824C1534.36 471.885 1531.29 470.819 1527.28 469.624C1521.48 467.832 1516.74 466.04 1513.07 464.248C1509.4 462.456 1506.25 459.811 1503.6 456.312C1500.95 452.813 1499.63 448.248 1499.63 442.616C1499.63 434.253 1502.66 427.725 1508.72 423.032C1514.78 418.253 1522.67 415.864 1532.4 415.864C1542.3 415.864 1550.28 418.253 1556.34 423.032C1562.39 427.725 1565.64 434.296 1566.06 442.744H1542.38C1542.21 439.843 1541.15 437.581 1539.18 435.96C1537.22 434.253 1534.7 433.4 1531.63 433.4C1528.99 433.4 1526.85 434.125 1525.23 435.576C1523.61 436.941 1522.8 438.947 1522.8 441.592C1522.8 444.493 1524.17 446.755 1526.9 448.376C1529.63 449.997 1533.89 451.747 1539.7 453.624C1545.5 455.587 1550.19 457.464 1553.78 459.256C1557.45 461.048 1560.6 463.651 1563.25 467.064C1565.89 470.477 1567.22 474.872 1567.22 480.248C1567.22 485.368 1565.89 490.019 1563.25 494.2C1560.69 498.381 1556.93 501.709 1551.98 504.184C1547.03 506.659 1541.19 507.896 1534.45 507.896ZM1632.78 507L1602.57 467.32V507H1580.69V417.144H1602.57V456.568L1632.53 417.144H1658.25L1623.44 461.176L1659.53 507H1632.78Z" fill="#DAE4F6"/>
<path d="M903.762 180.288V302.656C903.762 321.6 898.386 336.192 887.634 346.432C877.053 356.672 862.717 361.792 844.626 361.792C825.682 361.792 810.493 356.416 799.058 345.664C787.623 334.912 781.906 319.637 781.906 299.84H825.426C825.426 307.349 826.962 313.067 830.034 316.992C833.106 320.747 837.543 322.624 843.346 322.624C848.637 322.624 852.733 320.917 855.634 317.504C858.535 314.091 859.986 309.141 859.986 302.656V180.288H903.762ZM961.138 202.304C953.458 202.304 947.143 200.085 942.194 195.648C937.415 191.04 935.026 185.408 935.026 178.752C935.026 171.925 937.415 166.293 942.194 161.856C947.143 157.248 953.458 154.944 961.138 154.944C968.647 154.944 974.791 157.248 979.57 161.856C984.519 166.293 986.994 171.925 986.994 178.752C986.994 185.408 984.519 191.04 979.57 195.648C974.791 200.085 968.647 202.304 961.138 202.304ZM982.898 217.152V360H939.122V217.152H982.898ZM1058.4 240.96C1063.52 233.109 1069.92 226.965 1077.6 222.528C1085.28 217.92 1093.81 215.616 1103.2 215.616V261.952H1091.17C1080.24 261.952 1072.05 264.341 1066.59 269.12C1061.13 273.728 1058.4 281.92 1058.4 293.696V360H1014.62V217.152H1058.4V240.96ZM1115.42 288.32C1115.42 273.643 1118.15 260.757 1123.61 249.664C1129.24 238.571 1136.84 230.037 1146.39 224.064C1155.95 218.091 1166.62 215.104 1178.39 215.104C1188.46 215.104 1197.25 217.152 1204.76 221.248C1212.44 225.344 1218.33 230.72 1222.43 237.376V217.152H1266.2V360H1222.43V339.776C1218.16 346.432 1212.19 351.808 1204.51 355.904C1197 360 1188.21 362.048 1178.14 362.048C1166.53 362.048 1155.95 359.061 1146.39 353.088C1136.84 346.944 1129.24 338.325 1123.61 327.232C1118.15 315.968 1115.42 302.997 1115.42 288.32ZM1222.43 288.576C1222.43 277.653 1219.35 269.035 1213.21 262.72C1207.24 256.405 1199.9 253.248 1191.19 253.248C1182.49 253.248 1175.07 256.405 1168.92 262.72C1162.95 268.864 1159.96 277.397 1159.96 288.32C1159.96 299.243 1162.95 307.947 1168.92 314.432C1175.07 320.747 1182.49 323.904 1191.19 323.904C1199.9 323.904 1207.24 320.747 1213.21 314.432C1219.35 308.117 1222.43 299.499 1222.43 288.576Z" fill="#DAE4F6"/>
<defs>
<linearGradient id="paint0_linear_842_419" x1="491.726" y1="185.186" x2="387.666" y2="292.497" gradientUnits="userSpaceOnUse">
<stop offset="0.176" stop-color="#0052CC"/>
<stop offset="1" stop-color="#2684FF"/>
</linearGradient>
<linearGradient id="paint1_linear_842_419" x1="377.57" y1="307.765" x2="257.252" y2="424.829" gradientUnits="userSpaceOnUse">
<stop offset="0.176" stop-color="#0052CC"/>
<stop offset="1" stop-color="#2684FF"/>
</linearGradient>
</defs>
</svg>
