<svg width="508" height="508" viewBox="0 0 508 508" fill="none" xmlns="http://www.w3.org/2000/svg">
<path d="M21.0435 508L265.609 508C265.609 447.04 216.261 397.691 155.301 397.691L110.308 397.692L110.308 354.148C110.308 293.188 60.9596 243.84 -0.000389305 243.84L-0.000368051 486.954C-0.000367036 498.566 9.43359 508 21.0435 508Z" fill="#2684FF"/>
<path d="M142.235 386.08L386.801 386.08C386.801 325.12 337.453 275.772 276.493 275.772L231.499 275.772L231.499 232.228C231.499 171.268 182.149 121.92 121.189 121.92L121.189 365.034C121.189 376.646 130.625 386.08 142.235 386.08Z" fill="url(#paint0_linear_842_369)"/>
<path d="M263.426 264.16L507.992 264.16C507.992 203.2 458.644 153.852 397.684 153.852L352.69 153.852L352.69 110.308C352.69 49.3479 303.34 1.78912e-05 242.38 2.32205e-05L242.38 243.114C242.38 254.726 251.814 264.16 263.426 264.16Z" fill="url(#paint1_linear_842_369)"/>
<defs>
<linearGradient id="paint0_linear_842_369" x1="126.267" y1="385.814" x2="230.326" y2="278.503" gradientUnits="userSpaceOnUse">
<stop offset="0.176" stop-color="#0052CC"/>
<stop offset="1" stop-color="#2684FF"/>
</linearGradient>
<linearGradient id="paint1_linear_842_369" x1="240.422" y1="263.235" x2="360.74" y2="146.171" gradientUnits="userSpaceOnUse">
<stop offset="0.176" stop-color="#0052CC"/>
<stop offset="1" stop-color="#F2F"/>
</linearGradient>
</defs>
</svg>
