<svg xmlns="http://www.w3.org/2000/svg" width="601" height="601" viewBox="0 0 601 601"><g><g><g><path fill="#a484f8" d="M280.967 329.908L179.923 574.155l12.85 5.328 101.042-244.231 26.745-64.702L421.604 26.303l-12.851-5.328-101.041 244.231z"/></g><g><path fill="#a484f8" d="M335.72 293.26l243.965-101.18-5.324-12.864-243.966 101.178-64.587 26.805L21.842 408.377l5.322 12.865L271.13 320.064z"/></g><g><path fill="#a484f8" d="M330.404 320.055L574.386 421.22l5.322-12.865-243.983-101.162-64.595-26.785L27.147 179.246l-5.322 12.865 243.983 101.162z"/></g><g><path fill="#a484f8" d="M293.804 265.234L192.754 20.989l-12.851 5.328 101.063 244.245 26.756 64.673 101.06 244.245 12.852-5.33L320.57 329.905z"/></g><g/><g/><g><path fill="#00d99b" d="M444.526 37.03L307.733 274.218l-26.003 45.08L144.937 556.48l12.069 6.975 136.792-237.183 26-45.083L456.592 44.006z"/></g><g/><g/><g><path fill="#00d99b" d="M307.733 326.272l136.79 237.183 12.068-6.975-136.79-237.184-26.003-45.083L157.008 37.03l-12.068 6.975L281.73 281.19z"/></g><g><path fill="#ff5f5f" d="M308.33 318.568L507.685 518.14l10.721-10.733-199.355-199.571h281.933l.016-15.183H319.068L518.423 93.082l-10.721-10.733L308.347 281.92z"/></g><g><path fill="#ff5f5f" d="M293.184 281.92L93.829 82.35 83.108 93.082l199.358 199.574H.527v15.18H282.46L83.091 507.406l10.722 10.734 199.354-199.572z"/></g><g><path fill="#ffd228" d="M564.29 156.687l-7.573-13.131-248.378 143.556V0h-15.147v287.112L44.817 143.556l-7.573 13.131L285.619 300.24 37.24 443.796l7.573 13.134L293.19 313.37v287.118h15.147V313.377l248.378 143.556 7.573-13.134L315.913 300.24z"/></g></g></g></svg>