<svg width="1800" height="650" viewBox="0 0 1800 650" fill="none" xmlns="http://www.w3.org/2000/svg">
<g clip-path="url(#clip0_1581_58)">
<path d="M92.5 325.057H173.318C178.353 349.744 201.936 363.791 232.825 363.791C263.713 363.791 283.889 354.817 283.889 331.796C283.889 316.651 274.35 305.974 251.903 302.036L176.687 288.557C124.487 279.583 98.1024 254.858 98.1024 211.088C98.1024 149.901 156.473 120.14 226.616 120.14C300.697 120.14 351.232 153.839 355.131 210.52H276.546C272.041 188.067 254.666 176.822 224.913 176.822C198.529 176.822 178.315 185.227 178.315 203.781C178.315 216.692 185.621 225.666 208.636 229.603L283.852 241.379C337.718 250.352 364.67 276.743 364.67 322.217C364.67 390.144 303.498 421.04 232.219 421.04C160.94 421.04 99.8058 388.478 92.5 325.057Z" fill="white"/>
<path d="M722.238 270.609C722.238 353.681 674.542 422.176 598.758 422.176C554.999 422.176 512.868 401.957 498.294 326.723V520.394H412.403V124.078H485.348L494.887 209.422C513.398 136.459 556.059 119.042 602.657 119.042C673.936 119.042 722.2 185.833 722.2 270.609H722.238ZM636.347 270.609C636.347 226.271 608.827 187.537 567.302 187.537C525.776 187.537 498.256 223.469 498.256 270.609C498.256 317.749 524.64 353.151 567.302 353.151C609.963 353.151 636.347 314.417 636.347 270.609Z" fill="white"/>
<path d="M872.632 417.103H786.779V191.437H744.118V124.078H872.632V417.14V417.103ZM783.41 43.8079C783.41 14.6152 803.624 0 830.008 0C856.392 0 876.606 14.5774 876.606 43.8079C876.606 73.0384 856.392 87.0478 830.008 87.0478C803.624 87.0478 783.41 72.4704 783.41 43.8079Z" fill="white"/>
<path d="M1139.24 124.078V191.437H1105.02C1054.52 191.437 1026.43 218.964 1026.43 274.509V417.103H940.542V124.078H1010.15L1018.56 215.594C1030.9 148.235 1062.36 124.078 1103.31 124.078H1139.24Z" fill="white"/>
<path d="M1296.41 417.103H1210.55V191.437H1167.89V124.078H1296.41V417.14V417.103ZM1207.15 43.8079C1207.15 14.6152 1227.36 0 1253.74 0C1280.13 0 1300.34 14.5774 1300.34 43.8079C1300.34 73.0384 1280.13 87.0478 1253.74 87.0478C1227.36 87.0478 1207.15 72.4704 1207.15 43.8079Z" fill="white"/>
<path d="M1467.58 417.103H1381.73V191.437H1339.07V124.078H1467.58V417.14V417.103ZM1378.32 43.8079C1378.32 14.6152 1398.54 0 1424.92 0C1451.3 0 1471.52 14.5774 1471.52 43.8079C1471.52 73.0384 1451.3 87.0478 1424.92 87.0478C1398.54 87.0478 1378.32 72.4704 1378.32 43.8079Z" fill="#3960FF"/>
<path d="M1707.24 346.374V417.103H1646.63C1584.32 417.103 1552.9 383.972 1552.9 320.551V191.437H1510.24V124.078H1552.9V43.8079H1638.76V61.225C1638.76 90.9856 1620.25 124.116 1574.78 124.116H1706.67V191.475H1638.76V308.245C1638.76 332.932 1651.67 346.412 1675.82 346.412H1707.24V346.374Z" fill="white"/>
<path d="M584.487 598.203H619.54C623.25 614.674 635.098 622.36 654.593 622.36C672.46 622.36 684.308 614.219 684.308 601.232C684.308 591.009 678.024 584.269 665.495 581.96L628.587 574.538C601.9 569.427 587.743 557.841 587.743 531.829C587.743 500.478 617.231 484.234 651.564 484.234C688.472 484.234 711.676 500.705 714.932 532.283H680.106C677.078 517.668 666.63 511.61 650.845 511.61C633.66 511.61 622.985 517.63 622.985 529.481C622.985 538.53 627.641 543.869 638.543 545.952L678.706 553.6C705.847 558.712 719.55 571.472 719.55 596.764C719.55 630.425 690.554 649.924 653.646 649.924C616.739 649.924 588.878 632.28 584.487 598.165V598.203Z" fill="white"/>
<path d="M744.155 485.862H780.609V582.187C780.609 606.571 792.684 618.384 814.261 618.384C835.838 618.384 847.913 606.306 847.913 582.187V485.862H884.366V582.679C884.366 625.162 856.998 650 814.261 650C771.524 650 744.155 624.707 744.155 582.679V485.862Z" fill="white"/>
<path d="M1051.42 537.622C1051.42 570.109 1024.73 589.835 989.903 589.835H951.141V648.334H914.688V485.825H989.865C1026.05 485.825 1051.38 505.324 1051.38 537.584L1051.42 537.622ZM1015.23 537.395C1015.23 523.915 1004.55 515.358 988.086 515.358H951.179V560.15H988.086C1004.55 560.15 1015.23 551.328 1015.23 537.395Z" fill="white"/>
<path d="M1209.68 537.622C1209.68 570.109 1183 589.835 1148.17 589.835H1109.41V648.334H1072.95V485.825H1148.13C1184.32 485.825 1209.65 505.324 1209.65 537.584L1209.68 537.622ZM1173.49 537.395C1173.49 523.915 1162.82 515.358 1146.35 515.358H1109.45V560.15H1146.35C1162.82 560.15 1173.49 551.328 1173.49 537.395Z" fill="white"/>
<path d="M1227.1 567.117C1227.1 519.296 1261.2 484.234 1308.78 484.234C1356.37 484.234 1390.7 519.296 1390.7 567.117C1390.7 614.939 1356.59 650 1308.78 650C1260.97 650 1227.1 614.939 1227.1 567.117ZM1354.28 567.117C1354.28 538.568 1336.42 515.812 1308.78 515.812C1281.15 515.812 1263.51 539.023 1263.51 566.89C1263.51 594.757 1280.7 618.422 1308.78 618.422C1336.87 618.422 1354.28 594.757 1354.28 567.117Z" fill="white"/>
<path d="M1532.27 602.86L1555.71 648.372H1513.91L1484.92 588.926H1452.21V648.372H1415.76V485.862H1494.69C1530.65 485.862 1556.2 505.135 1556.2 537.167C1556.2 567.344 1535.3 585.216 1504.91 588.472C1515.58 589.419 1526.97 592.41 1532.31 602.86H1532.27ZM1452.21 559.204H1492.83C1509.3 559.204 1519.97 550.609 1519.97 536.902C1519.97 523.196 1509.3 515.32 1492.83 515.32H1452.21V559.204Z" fill="white"/>
<path d="M1707.5 517.44H1657.38V648.372H1620.93V517.44H1570.58V485.862H1707.5V517.44Z" fill="white"/>
</g>
<defs>
<clipPath id="clip0_1581_58">
<rect width="1615" height="650" fill="white" transform="translate(92.5)"/>
</clipPath>
</defs>
</svg>
